<svg width="6059" height="1516" viewBox="0 0 6059 1516" fill="none" xmlns="http://www.w3.org/2000/svg">
<g filter="url(#filter0_i_194_716)">
<g filter="url(#filter1_i_194_716)">
<path d="M797.389 482.28H359.919C352.515 482.181 345.165 483.554 338.295 486.319C331.426 489.084 325.174 493.186 319.903 498.387C314.632 503.588 310.446 509.784 307.589 516.616C304.733 523.448 303.262 530.78 303.262 538.185C303.262 545.59 304.733 552.921 307.589 559.753C310.446 566.585 314.632 572.782 319.903 577.983C325.174 583.184 331.426 587.286 338.295 590.051C345.165 592.816 352.515 594.189 359.919 594.09H460.999C475.82 594.106 490.029 600.002 500.506 610.485C510.983 620.967 516.871 635.179 516.879 650V1120.83C516.879 1128.17 518.326 1135.44 521.136 1142.22C523.945 1149.01 528.064 1155.17 533.256 1160.36C538.448 1165.55 544.611 1169.67 551.394 1172.48C558.178 1175.29 565.448 1176.73 572.789 1176.73H584.549C591.892 1176.73 599.162 1175.29 605.946 1172.48C612.73 1169.67 618.894 1165.55 624.086 1160.36C629.278 1155.17 633.397 1149.01 636.206 1142.23C639.015 1135.44 640.461 1128.17 640.459 1120.83V650C640.458 642.658 641.903 635.388 644.712 628.605C647.52 621.822 651.638 615.658 656.829 610.466C662.02 605.274 668.182 601.156 674.965 598.346C681.748 595.536 689.018 594.09 696.359 594.09H797.359C804.764 594.189 812.114 592.816 818.984 590.051C825.853 587.286 832.105 583.184 837.376 577.983C842.647 572.782 846.833 566.585 849.689 559.753C852.546 552.921 854.017 545.59 854.017 538.185C854.017 530.78 852.546 523.448 849.689 516.616C846.833 509.784 842.647 503.588 837.376 498.387C832.105 493.186 825.853 489.084 818.984 486.319C812.114 483.554 804.764 482.181 797.359 482.28H797.389Z" fill="white"/>
<path d="M3183.13 910.87C3173.78 894.87 3181.5 874.66 3198.89 868.4C3211.55 863.891 3223.77 858.255 3235.42 851.56C3260.91 836.853 3281.18 816.093 3296.25 789.28C3311.32 762.467 3318.83 727.156 3318.8 683.35C3318.8 644.776 3311.77 612.566 3297.71 586.72C3283.65 560.873 3264.85 540.277 3241.31 524.93C3217.77 509.597 3190.47 498.643 3159.42 492.07C3127.63 485.475 3095.25 482.194 3062.79 482.28H2825.86C2803.13 482.28 2789.03 506.99 2800.63 526.53L2926.42 738.67C2929.09 743.143 2930.51 748.245 2930.55 753.452C2930.59 758.659 2929.25 763.783 2926.65 768.297C2924.06 772.811 2920.3 776.552 2915.78 779.136C2911.26 781.72 2906.14 783.054 2900.93 783L2858.93 782.66C2855.06 782.625 2851.22 783.358 2847.64 784.815C2844.05 786.272 2840.79 788.424 2838.04 791.149C2835.29 793.873 2833.11 797.114 2831.62 800.686C2830.13 804.258 2829.36 808.09 2829.36 811.96V1147.48C2829.36 1155.26 2832.45 1162.72 2837.96 1168.22C2843.46 1173.72 2850.92 1176.81 2858.7 1176.81H2923.7C2927.55 1176.81 2931.36 1176.05 2934.92 1174.57C2938.48 1173.1 2941.71 1170.94 2944.43 1168.22C2947.15 1165.49 2949.31 1162.26 2950.78 1158.7C2952.25 1155.14 2953.01 1151.33 2953.01 1147.48V918.68C2953.01 910.904 2956.1 903.445 2961.59 897.944C2967.09 892.443 2974.54 889.348 2982.32 889.34H3000.87C3006 889.36 3011.04 890.724 3015.47 893.296C3019.91 895.868 3023.6 899.559 3026.17 904L3176 1163.24C3178.57 1167.69 3182.27 1171.39 3186.73 1173.96C3191.18 1176.54 3196.24 1177.89 3201.38 1177.9H3288.1C3293.26 1177.9 3298.33 1176.53 3302.8 1173.95C3307.26 1171.36 3310.97 1167.64 3313.54 1163.16C3316.1 1158.68 3317.45 1153.61 3317.43 1148.44C3317.4 1143.28 3316.02 1138.22 3313.42 1133.76L3183.13 910.87ZM3174.13 740.25C3163.91 753.385 3150.36 763.543 3134.89 769.67C3132.62 770.6 3130.34 771.45 3128.01 772.29C3121.59 774.598 3114.58 774.618 3108.15 772.345C3101.72 770.072 3096.27 765.648 3092.73 759.82L3016.09 632.66C3013.41 628.212 3011.96 623.132 3011.89 617.94C3011.81 612.748 3013.12 607.63 3015.68 603.109C3018.23 598.588 3021.94 594.826 3026.42 592.208C3030.91 589.59 3036.01 588.211 3041.2 588.21C3058.24 588.255 3075.27 589.236 3092.2 591.15C3108.85 592.832 3125.1 597.305 3140.27 604.38C3154.35 611.024 3166.5 621.15 3175.58 633.8C3184.72 646.56 3189.3 663.727 3189.33 685.3C3189.32 708.84 3184.24 727.157 3174.1 740.25H3174.13Z" fill="white"/>
<path d="M5634.18 503.64C5626.06 503.639 5618.03 505.236 5610.53 508.341C5603.03 511.445 5596.22 515.997 5590.48 521.735C5584.75 527.473 5580.2 534.285 5577.09 541.782C5573.99 549.28 5572.39 557.315 5572.39 565.43V718.43C5572.39 726.545 5570.8 734.581 5567.69 742.079C5564.59 749.577 5560.04 756.39 5554.3 762.128C5548.56 767.866 5541.75 772.417 5534.25 775.522C5526.75 778.626 5518.71 780.222 5510.6 780.22H5309.53C5301.41 780.222 5293.38 778.626 5285.88 775.522C5278.38 772.417 5271.57 767.866 5265.83 762.127C5260.1 756.389 5255.55 749.576 5252.44 742.078C5249.34 734.58 5247.75 726.544 5247.75 718.43V565.43C5247.54 549.174 5240.94 533.655 5229.37 522.233C5217.8 510.811 5202.2 504.406 5185.94 504.406C5169.69 504.406 5154.09 510.811 5142.52 522.233C5130.95 533.655 5124.35 549.174 5124.14 565.43V1136.3C5124.35 1152.56 5130.95 1168.08 5142.52 1179.5C5154.09 1190.92 5169.69 1197.32 5185.94 1197.32C5202.2 1197.32 5217.8 1190.92 5229.37 1179.5C5240.94 1168.08 5247.54 1152.56 5247.75 1136.3V953.84C5247.75 945.726 5249.35 937.691 5252.45 930.195C5255.55 922.698 5260.1 915.886 5265.84 910.148C5271.58 904.41 5278.39 899.859 5285.89 896.754C5293.38 893.648 5301.42 892.05 5309.53 892.05H5510.6C5526.99 892.052 5542.7 898.563 5554.29 910.151C5565.88 921.738 5572.39 937.453 5572.39 953.84V1136.3C5572.6 1152.56 5579.2 1168.08 5590.77 1179.5C5602.34 1190.92 5617.94 1197.32 5634.19 1197.32C5650.45 1197.32 5666.05 1190.92 5677.62 1179.5C5689.19 1168.08 5695.79 1152.56 5696 1136.3V565.43C5695.99 549.039 5689.48 533.321 5677.89 521.733C5666.29 510.145 5650.57 503.637 5634.18 503.64Z" fill="white"/>
<path d="M4323.11 1164.28C4332.44 1180.08 4321.55 1200.21 4303.2 1200.88C4298.48 1201.06 4293.73 1201.15 4288.95 1201.14C4235.35 1201.14 4186.15 1192.47 4141.34 1175.14C4096.53 1157.81 4057.95 1133.29 4025.6 1101.6C3993.23 1069.88 3967.9 1031.79 3949.6 987.32C3931.3 942.853 3922.14 893.483 3922.13 839.21C3922.13 783.623 3931.29 733.106 3949.6 687.66C3956.05 671.582 3963.61 655.976 3972.25 640.96C3981.49 624.96 4004.68 624.96 4014.1 640.89L4069 733.78C4068.94 733.93 4068.85 734.07 4068.79 734.22C4057.37 764.306 4051.65 796.68 4051.64 831.34C4051.64 868.6 4057.36 902.933 4068.79 934.34C4080.22 965.747 4096.41 992.89 4117.36 1015.77C4138.37 1038.75 4163.91 1057.13 4192.36 1069.77C4214.98 1079.95 4239.69 1086.15 4266.5 1088.37C4270.34 1088.7 4274.05 1089.95 4277.32 1092.01C4280.58 1094.07 4283.3 1096.88 4285.26 1100.21L4323.11 1164.28Z" fill="white"/>
<path d="M4480.26 619.41L4472.51 625.09C4452.85 639.54 4425.67 639.48 4406.79 624.01C4391.56 611.537 4376.65 602.506 4362.05 596.92C4339.07 587.931 4314.62 583.269 4289.94 583.17C4253.94 583.17 4221.41 589.55 4192.35 602.31C4190.2 603.25 4188.08 604.22 4185.97 605.22C4180.5 607.795 4174.27 608.233 4168.5 606.447C4162.73 604.661 4157.84 600.781 4154.78 595.57L4119.73 536.19C4117.97 533.215 4116.86 529.898 4116.49 526.461C4116.11 523.023 4116.48 519.546 4117.55 516.261C4118.63 512.976 4120.4 509.96 4122.74 507.414C4125.08 504.868 4127.94 502.852 4131.12 501.5C4134.49 500.08 4137.89 498.703 4141.34 497.37C4186.12 480.037 4235.32 471.37 4288.95 471.37C4336.06 471.37 4379.71 479.703 4419.9 496.37C4442.1 505.702 4462.94 518 4481.84 532.93C4510.12 555 4509.16 598.17 4480.26 619.41Z" fill="white"/>
<path d="M4502.49 1127.7L4502.27 1127.9C4499.58 1130.22 4496.41 1131.92 4492.99 1132.89C4489.57 1133.85 4485.98 1134.05 4482.48 1133.47C4478.97 1132.89 4475.64 1131.55 4472.71 1129.53C4469.78 1127.52 4467.33 1124.89 4465.53 1121.83L4416 1037.92C4416.29 1037.63 4416.58 1037.39 4416.87 1037.1C4426 1028.62 4437.79 1023.57 4450.22 1022.79C4462.66 1022.01 4474.98 1025.55 4485.1 1032.82L4498.35 1042.26C4527 1062.68 4528.94 1104.48 4502.49 1127.7Z" fill="white"/>
<path d="M1719.15 869.34C1687.05 869.279 1655.44 861.495 1626.99 846.645C1598.54 831.795 1574.08 810.315 1555.67 784.02C1537.27 757.725 1525.46 727.387 1521.25 695.568C1517.05 663.75 1520.56 631.386 1531.49 601.21C1552.1 625.992 1577.91 645.941 1607.09 659.646C1636.26 673.351 1668.09 680.477 1700.33 680.52C1706.94 680.52 1713.66 680.22 1720.33 679.62C1726.33 679.08 1732.47 678.8 1738.49 678.8C1769.49 678.849 1800.06 686.102 1827.78 699.985C1855.5 713.869 1879.61 734.003 1898.22 758.8C1882.99 789.292 1860.21 815.38 1832.05 834.582C1803.89 853.784 1771.29 865.46 1737.34 868.5C1731.28 869.07 1725.17 869.34 1719.15 869.34Z" fill="white"/>
<path d="M1907.18 738C1886.56 713.267 1860.77 693.36 1831.62 679.684C1802.47 666.008 1770.67 658.896 1738.47 658.85C1731.85 658.85 1725.13 659.15 1718.47 659.74C1712.47 660.29 1706.33 660.56 1700.3 660.56C1668.18 660.498 1636.55 652.702 1608.08 637.831C1579.61 622.96 1555.14 601.451 1536.75 575.124C1518.35 548.797 1506.56 518.427 1502.38 486.581C1498.2 454.736 1501.76 422.352 1512.74 392.17C1514.85 394.703 1517.02 397.18 1519.23 399.6C1519.05 436.705 1530.35 472.959 1551.58 503.39C1584.74 550.88 1638.35 579.23 1694.98 579.23C1699.58 579.23 1704.25 579.04 1708.86 578.66C1712.93 578.33 1717.06 578.17 1721.14 578.17H1724.46L1761.6 641.07C1763.66 644.54 1766.59 647.415 1770.09 649.415C1773.6 651.415 1777.56 652.471 1781.6 652.48C1782.87 652.476 1784.14 652.373 1785.39 652.17C1797.91 650.131 1810.56 648.938 1823.24 648.6C1826.24 648.52 1829.02 648.48 1831.79 648.48C1861.95 648.48 1890.45 653.48 1916.51 663.42C1917.4 663.75 1918.28 664.09 1919.16 664.42C1919.81 689.48 1915.75 714.44 1907.18 738Z" fill="white"/>
<path d="M1695 559.19C1644.9 559.19 1597.42 534.04 1568 491.9C1552.35 469.459 1542.71 443.383 1540 416.16C1539.34 409.451 1539.1 402.708 1539.28 395.97C1539.67 381.404 1542.13 366.967 1546.57 353.09C1579.92 391.77 1628.11 414.4 1678.69 414.4C1683.29 414.4 1687.96 414.21 1692.56 413.84C1696.63 413.51 1700.76 413.34 1704.83 413.34C1722.41 413.339 1739.85 416.415 1756.37 422.43C1786.87 433.678 1813.2 453.986 1831.83 480.63C1834.6 484.58 1837.2 488.7 1839.59 492.88C1842.98 498.855 1845.99 505.041 1848.59 511.4C1840.7 510.98 1832.69 510.77 1824.59 510.77C1789.78 510.77 1756.59 514.9 1726.08 523.05C1722.62 523.975 1719.42 525.688 1716.74 528.054C1714.05 530.42 1711.95 533.375 1710.59 536.688C1709.24 540.001 1708.67 543.583 1708.92 547.153C1709.18 550.723 1710.26 554.186 1712.08 557.27L1712.71 558.33C1710.87 558.42 1709.03 558.54 1707.2 558.69C1703.21 559 1699.08 559.18 1695 559.19Z" fill="white"/>
<path d="M2146.11 961.72C2143.52 971.26 2140.54 980.593 2137.17 989.72C2122.02 1030.74 2099.87 1066.11 2070.73 1095.82C2068.63 1097.97 2066.49 1100.09 2064.32 1102.16C2062.88 1103.53 2061.15 1104.57 2059.25 1105.18C2057.36 1105.79 2055.35 1105.97 2053.38 1105.7C2051.41 1105.42 2049.52 1104.71 2047.87 1103.61C2046.21 1102.51 2044.82 1101.04 2043.81 1099.33L1997.71 1021.19C1996.24 1018.71 1995.62 1015.81 1995.96 1012.94C1996.29 1010.07 1997.56 1007.4 1999.57 1005.32C2016.64 987.59 2030.34 966.903 2040 944.27C2049.52 922.33 2055.13 898.383 2056.83 872.43C2057.21 866.75 2057.4 860.98 2057.4 855.12C2057.4 822.407 2051.6 792.83 2040 766.39C2028.85 740.575 2012.46 717.358 1991.87 698.21C1973.41 681.12 1952.1 667.384 1928.92 657.62C1926.03 656.38 1923.09 655.193 1920.11 654.06C1892.78 643.66 1863.35 638.463 1831.83 638.47C1828.86 638.47 1825.91 638.51 1823 638.59C1809.87 638.938 1796.77 640.175 1783.81 642.29C1781.18 642.731 1778.47 642.364 1776.06 641.238C1773.64 640.111 1771.62 638.278 1770.26 635.98L1720.78 552.19C1719.74 550.433 1719.13 548.459 1718.98 546.425C1718.84 544.39 1719.16 542.349 1719.94 540.462C1720.71 538.575 1721.92 536.893 1723.45 535.548C1724.98 534.203 1726.81 533.232 1728.78 532.71C1758.63 524.75 1790.61 520.77 1824.72 520.77C1837.88 520.77 1850.72 521.336 1863.24 522.47C1865.46 522.67 1867.66 522.88 1869.85 523.12C1885.59 524.773 1901.21 527.446 1916.6 531.12C1932.23 534.862 1947.56 539.745 1962.47 545.73C2003.77 562.356 2038.99 585.387 2068.12 614.82C2097.25 644.253 2119.69 679.326 2135.42 720.04C2140.87 734.163 2145.36 748.64 2148.85 763.37C2155.77 793.153 2159.18 823.644 2159 854.22C2159.45 892.56 2155.15 928.393 2146.1 961.72H2146.11Z" fill="white"/>
<path d="M1919.4 1180.08C1902.46 1184.11 1885.26 1186.92 1867.92 1188.51C1855.04 1189.72 1841.82 1190.33 1828.25 1190.33C1778.92 1190.33 1734.05 1182 1693.64 1165.33C1653.23 1148.66 1618.47 1125.49 1589.34 1095.8C1560.21 1066.06 1537.48 1030.69 1521.13 989.7C1504.78 948.706 1496.31 903.546 1495.7 854.22C1495.7 841.826 1496.21 829.697 1497.24 817.83C1499.75 786.691 1506.35 756.017 1516.87 726.6C1529.82 773.051 1558.36 813.63 1597.7 841.52C1597.47 845.993 1597.35 850.527 1597.35 855.12C1597.35 882.147 1601.42 907.147 1609.55 930.12C1611.25 934.913 1613.12 939.62 1615.17 944.24C1626.56 970.274 1643.24 993.648 1664.17 1012.87C1684.29 1031.28 1708.02 1045.64 1735.35 1055.96C1736.28 1056.32 1737.22 1056.66 1738.17 1056.96C1766.68 1067.37 1797.88 1072.57 1831.77 1072.56C1842.99 1072.57 1854.2 1071.86 1865.33 1070.45C1867.88 1070.13 1870.48 1070.57 1872.79 1071.7C1875.09 1072.84 1877.02 1074.62 1878.33 1076.84L1927.68 1160.43C1928.74 1162.21 1929.37 1164.22 1929.52 1166.29C1929.66 1168.36 1929.32 1170.44 1928.51 1172.35C1927.71 1174.26 1926.46 1175.96 1924.88 1177.3C1923.3 1178.65 1921.42 1179.6 1919.4 1180.08Z" fill="white"/>
<path d="M2099.27 1317.77L2091.71 1322.11C2086.99 1324.82 2081.78 1326.57 2076.39 1327.27C2070.99 1327.96 2065.51 1327.59 2060.26 1326.17C2055.01 1324.75 2050.09 1322.31 2045.78 1318.98C2041.47 1315.66 2037.86 1311.52 2035.15 1306.8L1861.48 1004.14C1856 994.611 1846.97 987.647 1836.36 984.778C1825.75 981.909 1814.43 983.37 1804.9 988.84L1740 1026.1C1735.28 1028.81 1730.07 1030.56 1724.68 1031.26C1719.28 1031.95 1713.8 1031.58 1708.55 1030.16C1703.3 1028.73 1698.38 1026.29 1694.07 1022.97C1689.76 1019.64 1686.15 1015.5 1683.44 1010.78C1680.74 1006.07 1678.98 1000.86 1678.29 995.464C1677.59 990.067 1677.97 984.587 1679.39 979.336C1680.81 974.084 1683.25 969.164 1686.58 964.856C1689.9 960.549 1694.04 956.938 1698.76 954.23L1980.01 792.86C1984.73 790.152 1989.93 788.4 1995.33 787.704C2000.73 787.009 2006.21 787.382 2011.46 788.804C2016.71 790.227 2021.63 792.669 2025.94 795.993C2030.25 799.316 2033.86 803.456 2036.56 808.175C2039.27 812.894 2041.02 818.1 2041.72 823.496C2042.42 828.892 2042.04 834.373 2040.62 839.624C2039.2 844.876 2036.76 849.796 2033.43 854.104C2030.11 858.411 2025.97 862.022 2021.25 864.73L1956.23 902C1951.51 904.708 1947.37 908.319 1944.05 912.628C1940.72 916.936 1938.28 921.857 1936.86 927.109C1935.44 932.361 1935.06 937.842 1935.76 943.238C1936.46 948.635 1938.21 953.841 1940.92 958.56L2114.59 1261.21C2117.3 1265.93 2119.05 1271.14 2119.75 1276.53C2120.44 1281.93 2120.07 1287.41 2118.65 1292.66C2117.22 1297.92 2114.78 1302.84 2111.45 1307.14C2108.13 1311.45 2103.99 1315.06 2099.27 1317.77Z" fill="white"/>
</g>
</g>
<defs>
<filter id="filter0_i_194_716" x="0" y="0" width="6059" height="1518" filterUnits="userSpaceOnUse" color-interpolation-filters="sRGB">
<feFlood flood-opacity="0" result="BackgroundImageFix"/>
<feBlend mode="normal" in="SourceGraphic" in2="BackgroundImageFix" result="shape"/>
<feColorMatrix in="SourceAlpha" type="matrix" values="0 0 0 0 0 0 0 0 0 0 0 0 0 0 0 0 0 0 127 0" result="hardAlpha"/>
<feOffset dy="2"/>
<feGaussianBlur stdDeviation="1"/>
<feComposite in2="hardAlpha" operator="arithmetic" k2="-1" k3="1"/>
<feColorMatrix type="matrix" values="0 0 0 0 0 0 0 0 0 0 0 0 0 0 0 0 0 0 0.25 0"/>
<feBlend mode="normal" in2="shape" result="effect1_innerShadow_194_716"/>
</filter>
<filter id="filter1_i_194_716" x="303.262" y="353.09" width="5392.74" height="978.52" filterUnits="userSpaceOnUse" color-interpolation-filters="sRGB">
<feFlood flood-opacity="0" result="BackgroundImageFix"/>
<feBlend mode="normal" in="SourceGraphic" in2="BackgroundImageFix" result="shape"/>
<feColorMatrix in="SourceAlpha" type="matrix" values="0 0 0 0 0 0 0 0 0 0 0 0 0 0 0 0 0 0 127 0" result="hardAlpha"/>
<feOffset dy="4"/>
<feGaussianBlur stdDeviation="2"/>
<feComposite in2="hardAlpha" operator="arithmetic" k2="-1" k3="1"/>
<feColorMatrix type="matrix" values="0 0 0 0 0 0 0 0 0 0 0 0 0 0 0 0 0 0 0.25 0"/>
<feBlend mode="normal" in2="shape" result="effect1_innerShadow_194_716"/>
</filter>
</defs>
</svg>
